{
	"asset":{
		"generator":"Khronos glTF Blender I/O v4.0.44",
		"version":"2.0"
	},
	"scene":0,
	"scenes":[
		{
			"name":"Scene",
			"nodes":[
				0
			]
		},
		{
			"name":"Scene.001",
			"nodes":[
				1
			]
		},
		{
			"name":"sky",
			"nodes":[
				2
			]
		}
	],
	"nodes":[
		{
			"mesh":0,
			"name":"Plane.6134",
			"rotation":[
				-0.06710582971572876,
				-0.9509670734405518,
				0.08351323753595352,
				0.2901450991630554
			],
			"scale":[
				0.5600000023841858,
				0.5600000023841858,
				0.5600000023841858
			],
			"translation":[
				-6.215637683868408,
				3.651790142059326,
				4.3610358238220215
			]
		},
		{
			"mesh":1,
			"name":"Cube"
		},
		{
			"mesh":2,
			"name":"Sphere"
		}
	],
	"materials":[
		{
			"doubleSided":true,
			"name":"grass_upper.001",
			"pbrMetallicRoughness":{}
		},
		{
			"doubleSided":true,
			"name":"Material",
			"pbrMetallicRoughness":{
				"baseColorTexture":{
					"index":0
				},
				"metallicFactor":0
			}
		},
		{
			"doubleSided":true,
			"name":"Material.002",
			"pbrMetallicRoughness":{
				"metallicFactor":0,
				"roughnessFactor":0.5
			}
		}
	],
	"meshes":[
		{
			"name":"Plane.014",
			"primitives":[
				{
					"attributes":{
						"POSITION":0,
						"NORMAL":1,
						"TEXCOORD_0":2,
						"TANGENT":3
					},
					"indices":4,
					"material":0
				}
			]
		},
		{
			"name":"Cube.007",
			"primitives":[
				{
					"attributes":{
						"POSITION":5,
						"NORMAL":6,
						"TEXCOORD_0":7,
						"TANGENT":8
					},
					"indices":9,
					"material":1
				}
			]
		},
		{
			"name":"Sphere",
			"primitives":[
				{
					"attributes":{
						"POSITION":10,
						"NORMAL":11,
						"TEXCOORD_0":12,
						"TANGENT":13
					},
					"indices":14,
					"material":2
				}
			]
		}
	],
	"textures":[
		{
			"sampler":0,
			"source":0
		}
	],
	"images":[
		{
			"mimeType":"image/png",
			"name":"bricks",
			"uri":"bricks.png"
		}
	],
	"accessors":[
		{
			"bufferView":0,
			"componentType":5126,
			"count":18375,
			"max":[
				3.7442445755004883,
				6.446035861968994,
				48.20703125
			],
			"min":[
				-76.32247924804688,
				-10.578672409057617,
				-14.16226577758789
			],
			"type":"VEC3"
		},
		{
			"bufferView":1,
			"componentType":5126,
			"count":18375,
			"type":"VEC3"
		},
		{
			"bufferView":2,
			"componentType":5126,
			"count":18375,
			"type":"VEC2"
		},
		{
			"bufferView":3,
			"componentType":5126,
			"count":18375,
			"type":"VEC4"
		},
		{
			"bufferView":4,
			"componentType":5123,
			"count":18375,
			"type":"SCALAR"
		},
		{
			"bufferView":5,
			"componentType":5126,
			"count":301,
			"max":[
				1,
				1,
				1
			],
			"min":[
				-1,
				-1,
				-1
			],
			"type":"VEC3"
		},
		{
			"bufferView":6,
			"componentType":5126,
			"count":301,
			"type":"VEC3"
		},
		{
			"bufferView":7,
			"componentType":5126,
			"count":301,
			"type":"VEC2"
		},
		{
			"bufferView":8,
			"componentType":5126,
			"count":301,
			"type":"VEC4"
		},
		{
			"bufferView":9,
			"componentType":5123,
			"count":1140,
			"type":"SCALAR"
		},
		{
			"bufferView":10,
			"componentType":5126,
			"count":559,
			"max":[
				0.9999997019767761,
				1,
				0.9999993443489075
			],
			"min":[
				-0.9999990463256836,
				-1,
				-1
			],
			"type":"VEC3"
		},
		{
			"bufferView":11,
			"componentType":5126,
			"count":559,
			"type":"VEC3"
		},
		{
			"bufferView":12,
			"componentType":5126,
			"count":559,
			"type":"VEC2"
		},
		{
			"bufferView":13,
			"componentType":5126,
			"count":559,
			"type":"VEC4"
		},
		{
			"bufferView":14,
			"componentType":5123,
			"count":2880,
			"type":"SCALAR"
		}
	],
	"bufferViews":[
		{
			"buffer":0,
			"byteLength":220500,
			"byteOffset":0,
			"target":34962
		},
		{
			"buffer":0,
			"byteLength":220500,
			"byteOffset":220500,
			"target":34962
		},
		{
			"buffer":0,
			"byteLength":147000,
			"byteOffset":441000,
			"target":34962
		},
		{
			"buffer":0,
			"byteLength":294000,
			"byteOffset":588000,
			"target":34962
		},
		{
			"buffer":0,
			"byteLength":36750,
			"byteOffset":882000,
			"target":34963
		},
		{
			"buffer":0,
			"byteLength":3612,
			"byteOffset":918752,
			"target":34962
		},
		{
			"buffer":0,
			"byteLength":3612,
			"byteOffset":922364,
			"target":34962
		},
		{
			"buffer":0,
			"byteLength":2408,
			"byteOffset":925976,
			"target":34962
		},
		{
			"buffer":0,
			"byteLength":4816,
			"byteOffset":928384,
			"target":34962
		},
		{
			"buffer":0,
			"byteLength":2280,
			"byteOffset":933200,
			"target":34963
		},
		{
			"buffer":0,
			"byteLength":6708,
			"byteOffset":935480,
			"target":34962
		},
		{
			"buffer":0,
			"byteLength":6708,
			"byteOffset":942188,
			"target":34962
		},
		{
			"buffer":0,
			"byteLength":4472,
			"byteOffset":948896,
			"target":34962
		},
		{
			"buffer":0,
			"byteLength":8944,
			"byteOffset":953368,
			"target":34962
		},
		{
			"buffer":0,
			"byteLength":5760,
			"byteOffset":962312,
			"target":34963
		}
	],
	"samplers":[
		{
			"magFilter":9729,
			"minFilter":9987
		}
	],
	"buffers":[
		{
			"byteLength":968072,
			"uri":"grass.bin"
		}
	]
}
