{
	"asset":{
		"generator":"Khronos glTF Blender I/O v4.0.44",
		"version":"2.0"
	},
	"scene":0,
	"scenes":[
		{
			"name":"Scene",
			"nodes":[
				11
			]
		},
		{
			"name":"Scene.001",
			"nodes":[
				12
			]
		},
		{
			"name":"sky",
			"nodes":[
				13
			]
		}
	],
	"nodes":[
		{
			"name":"Banana",
			"translation":[
				5.041272163391113,
				-5.554132461547852,
				-19.065221786499023
			]
		},
		{
			"name":"Banana.001",
			"translation":[
				2.2210605144500732,
				-5.554128646850586,
				-19.057050704956055
			]
		},
		{
			"name":"Banana.002",
			"translation":[
				-0.09262728691101074,
				-5.554130554199219,
				-19.04732894897461
			]
		},
		{
			"name":"Banana.003",
			"translation":[
				-4.957314491271973,
				4.500000476837158,
				-14.101595878601074
			]
		},
		{
			"name":"Banana.004",
			"translation":[
				-2.0172576904296875,
				4.499999523162842,
				-14.063652992248535
			]
		},
		{
			"name":"Banana.005",
			"translation":[
				1.9635047912597656,
				6.5,
				-14.016874313354492
			]
		},
		{
			"name":"Banana.006",
			"translation":[
				6.493778228759766,
				8.490103721618652,
				-13.966998100280762
			]
		},
		{
			"name":"Banana.007",
			"translation":[
				9.040946960449219,
				8.5,
				-13.982912063598633
			]
		},
		{
			"name":"Banana.008",
			"translation":[
				-8.249752044677734,
				3.9502029418945312,
				4.174654960632324
			]
		},
		{
			"name":"Banana.009",
			"translation":[
				-8.584604263305664,
				3.2258033752441406,
				-4.178023338317871
			]
		},
		{
			"name":"Banana.010",
			"translation":[
				-9.087284088134766,
				3.2549057006835938,
				-11.193310737609863
			]
		},
		{
			"children":[
				0,
				1,
				2,
				3,
				4,
				5,
				6,
				7,
				8,
				9,
				10
			],
			"name":"Pickups"
		},
		{
			"mesh":0,
			"name":"Cube"
		},
		{
			"mesh":1,
			"name":"Sphere"
		}
	],
	"materials":[
		{
			"doubleSided":true,
			"name":"Material",
			"pbrMetallicRoughness":{
				"baseColorTexture":{
					"index":0
				},
				"metallicFactor":0
			}
		},
		{
			"doubleSided":true,
			"name":"Material.002",
			"pbrMetallicRoughness":{
				"metallicFactor":0,
				"roughnessFactor":0.5
			}
		}
	],
	"meshes":[
		{
			"name":"Cube.007",
			"primitives":[
				{
					"attributes":{
						"POSITION":0,
						"NORMAL":1,
						"TEXCOORD_0":2,
						"TANGENT":3
					},
					"indices":4,
					"material":0
				}
			]
		},
		{
			"name":"Sphere",
			"primitives":[
				{
					"attributes":{
						"POSITION":5,
						"NORMAL":6,
						"TEXCOORD_0":7,
						"TANGENT":8
					},
					"indices":9,
					"material":1
				}
			]
		}
	],
	"textures":[
		{
			"sampler":0,
			"source":0
		}
	],
	"images":[
		{
			"mimeType":"image/png",
			"name":"bricks",
			"uri":"bricks.png"
		}
	],
	"accessors":[
		{
			"bufferView":0,
			"componentType":5126,
			"count":301,
			"max":[
				1,
				1,
				1
			],
			"min":[
				-1,
				-1,
				-1
			],
			"type":"VEC3"
		},
		{
			"bufferView":1,
			"componentType":5126,
			"count":301,
			"type":"VEC3"
		},
		{
			"bufferView":2,
			"componentType":5126,
			"count":301,
			"type":"VEC2"
		},
		{
			"bufferView":3,
			"componentType":5126,
			"count":301,
			"type":"VEC4"
		},
		{
			"bufferView":4,
			"componentType":5123,
			"count":1140,
			"type":"SCALAR"
		},
		{
			"bufferView":5,
			"componentType":5126,
			"count":559,
			"max":[
				0.9999997019767761,
				1,
				0.9999993443489075
			],
			"min":[
				-0.9999990463256836,
				-1,
				-1
			],
			"type":"VEC3"
		},
		{
			"bufferView":6,
			"componentType":5126,
			"count":559,
			"type":"VEC3"
		},
		{
			"bufferView":7,
			"componentType":5126,
			"count":559,
			"type":"VEC2"
		},
		{
			"bufferView":8,
			"componentType":5126,
			"count":559,
			"type":"VEC4"
		},
		{
			"bufferView":9,
			"componentType":5123,
			"count":2880,
			"type":"SCALAR"
		}
	],
	"bufferViews":[
		{
			"buffer":0,
			"byteLength":3612,
			"byteOffset":0,
			"target":34962
		},
		{
			"buffer":0,
			"byteLength":3612,
			"byteOffset":3612,
			"target":34962
		},
		{
			"buffer":0,
			"byteLength":2408,
			"byteOffset":7224,
			"target":34962
		},
		{
			"buffer":0,
			"byteLength":4816,
			"byteOffset":9632,
			"target":34962
		},
		{
			"buffer":0,
			"byteLength":2280,
			"byteOffset":14448,
			"target":34963
		},
		{
			"buffer":0,
			"byteLength":6708,
			"byteOffset":16728,
			"target":34962
		},
		{
			"buffer":0,
			"byteLength":6708,
			"byteOffset":23436,
			"target":34962
		},
		{
			"buffer":0,
			"byteLength":4472,
			"byteOffset":30144,
			"target":34962
		},
		{
			"buffer":0,
			"byteLength":8944,
			"byteOffset":34616,
			"target":34962
		},
		{
			"buffer":0,
			"byteLength":5760,
			"byteOffset":43560,
			"target":34963
		}
	],
	"samplers":[
		{
			"magFilter":9729,
			"minFilter":9987
		}
	],
	"buffers":[
		{
			"byteLength":49320,
			"uri":"pickups.bin"
		}
	]
}
